<svg width="3183" height="256" viewBox="0 0 3183 256" fill="none" xmlns="http://www.w3.org/2000/svg">
<path d="M243 0H13C5.8203 0 0 5.8203 0 13V243C0 250.18 5.8203 256 13 256H243C250.18 256 256 250.18 256 243V13C256 5.8203 250.18 0 243 0Z" fill="#1384FE"/>
<path d="M216.47 179.693L128.39 218L46.1533 187.91L134.659 147.707L216.47 179.693Z" fill="url(#paint0_linear)"/>
<path d="M134.661 147.707L46.1553 187.91L40 80.219L126.765 38L134.661 147.707Z" fill="url(#paint1_radial)"/>
<path d="M207.378 72.4595L216.472 179.694L134.661 147.707L126.765 38L207.378 72.4595Z" fill="url(#paint2_linear)"/>
<path d="M151.418 66.3127L189.807 82.4365L195.183 149.994L156.021 133.104L151.418 66.3127Z" fill="url(#paint3_linear)"/>
<path d="M189.807 82.4365L153.956 103.197L151.418 66.3127L189.807 82.4365Z" fill="url(#paint4_linear)"/>
<path d="M216.47 179.693V179.559L134.521 145.799L134.659 147.699L216.47 179.693Z" fill="url(#paint5_radial)"/>
<path d="M133.342 147.448L134.991 146.489L126.765 38L133.342 147.448Z" fill="url(#paint6_radial)"/>
<path d="M134.521 145.799L134.623 147.699L46.3916 187.798L46.1533 187.91L134.521 145.799Z" fill="url(#paint7_radial)"/>
<path d="M308 176.442H321.43V66H308V176.442ZM377.574 164.118C363.828 164.118 353.084 155.428 350.556 142.314H412.018V134.572C412.018 113.874 397.798 96.178 375.836 96.178C353.084 96.178 336.652 114.348 336.652 136.784C336.652 159.536 354.822 177.706 377.574 177.706C387.054 177.706 398.43 174.546 407.12 168.226L401.748 157.324C394.322 162.222 385.158 164.118 377.574 164.118ZM375.362 109.608C388.476 109.608 397.956 120.984 397.956 130.78H350.872C350.872 130.464 351.03 130.148 351.03 129.832C353.874 118.14 362.564 109.608 375.362 109.608ZM450.526 151.478L451.632 149.74L452.422 151.004L468.696 176.442H484.654L460.48 138.364L459.69 137.1L460.48 135.836L484.812 97.442H468.854L452.58 123.196L451.632 124.618L450.684 123.196L434.568 97.284H418.294L443.1 136.152L443.732 137.1L442.942 138.206L418.768 176.442H434.726L450.526 151.478ZM496.94 208.832H510.37V167.12C517.48 173.598 526.96 177.548 537.546 177.548C560.298 177.548 578.468 159.378 578.468 136.942C578.468 114.19 560.298 96.02 537.546 96.02C526.96 96.02 517.48 99.97 510.37 106.448V97.284H496.94V208.832ZM564.88 136.942C564.88 152.11 552.872 164.118 537.546 164.118C522.378 164.118 510.37 152.11 510.37 136.942C510.37 121.616 522.378 109.608 537.546 109.608C552.872 109.608 564.88 121.616 564.88 136.942ZM596.128 176.442H609.558V129.674C609.558 114.98 619.67 110.24 634.522 109.766H637.84V96.178H633.1C618.722 96.652 614.614 99.18 609.558 102.972V97.442H596.128V176.442ZM657.352 176.442H670.782V97.442H657.352V176.442ZM664.146 86.856C667.78 86.856 670.782 83.696 670.782 80.062C670.782 76.744 667.464 73.584 664.146 73.584C660.512 73.584 657.352 76.428 657.352 80.062C657.352 83.854 660.354 86.856 664.146 86.856ZM724.927 164.118C709.601 164.118 697.593 152.11 697.593 136.784C697.593 121.616 709.601 109.608 724.927 109.608C734.249 109.608 742.465 113.874 747.047 120.826L757.633 112.768C749.575 103.288 738.199 96.178 724.927 96.178C702.175 96.178 684.005 114.348 684.005 136.784C684.005 159.536 702.175 177.706 724.927 177.706C741.043 177.706 754.947 169.016 761.109 155.27L748.311 150.846C744.519 159.062 735.039 164.118 724.927 164.118ZM816.709 164.118C802.963 164.118 792.219 155.428 789.691 142.314H851.153V134.572C851.153 113.874 836.933 96.178 814.971 96.178C792.219 96.178 775.787 114.348 775.787 136.784C775.787 159.536 793.957 177.706 816.709 177.706C826.189 177.706 837.565 174.546 846.255 168.226L840.883 157.324C833.457 162.222 824.293 164.118 816.709 164.118ZM814.497 109.608C827.611 109.608 837.091 120.984 837.091 130.78H790.007C790.007 130.464 790.165 130.148 790.165 129.832C793.009 118.14 801.699 109.608 814.497 109.608Z" fill="white"/>
<path d="M902.14 146.584H882.46V137.728H902.14V146.584ZM942.62 162H930.976V107.306H956.56C962.3 107.306 966.783 109.001 970.008 112.39C973.288 115.725 974.928 119.907 974.928 124.936C974.928 129.911 973.288 134.093 970.008 137.482C966.728 140.871 962.246 142.566 956.56 142.566H942.62V162ZM955.002 132.316C957.353 132.316 959.266 131.66 960.742 130.348C962.273 128.981 963.038 127.177 963.038 124.936C963.038 122.695 962.273 120.918 960.742 119.606C959.266 118.239 957.353 117.556 955.002 117.556H942.62V132.316H955.002ZM1014.49 162H1004.08V157.9C1001.24 161.289 997.054 162.984 991.533 162.984C987.979 162.984 984.781 161.836 981.939 159.54C979.151 157.189 977.757 153.964 977.757 149.864C977.757 145.6 979.123 142.402 981.857 140.27C984.645 138.138 987.87 137.072 991.533 137.072C997.163 137.072 1001.35 138.685 1004.08 141.91V136.58C1004.08 134.557 1003.29 132.945 1001.7 131.742C1000.12 130.539 998.011 129.938 995.387 129.938C991.068 129.938 987.214 131.496 983.825 134.612L979.889 127.642C984.59 123.487 990.357 121.41 997.191 121.41C1002.27 121.41 1006.43 122.585 1009.65 124.936C1012.88 127.287 1014.49 131.113 1014.49 136.416V162ZM995.715 155.932C999.596 155.932 1002.38 154.784 1004.08 152.488V147.568C1002.38 145.272 999.596 144.124 995.715 144.124C993.583 144.124 991.806 144.671 990.385 145.764C988.963 146.803 988.253 148.251 988.253 150.11C988.253 151.914 988.963 153.335 990.385 154.374C991.806 155.413 993.583 155.932 995.715 155.932ZM1043.27 162.984C1037.15 162.984 1032.12 161.043 1028.18 157.162C1024.25 153.281 1022.28 148.279 1022.28 142.156C1022.28 136.088 1024.25 131.113 1028.18 127.232C1032.12 123.351 1037.15 121.41 1043.27 121.41C1050.27 121.41 1055.49 123.788 1058.93 128.544L1052.13 134.94C1050.21 132.097 1047.43 130.676 1043.76 130.676C1040.59 130.676 1038 131.742 1035.97 133.874C1034.01 135.951 1033.02 138.712 1033.02 142.156C1033.02 145.6 1034.01 148.388 1035.97 150.52C1038 152.652 1040.59 153.718 1043.76 153.718C1047.32 153.718 1050.11 152.297 1052.13 149.454L1058.93 155.768C1055.49 160.579 1050.27 162.984 1043.27 162.984ZM1064.51 122.394H1074.93V133.136C1074.93 135.815 1075.61 137.728 1076.98 138.876C1078.34 139.969 1080.45 140.516 1083.29 140.516C1086.52 140.516 1089.17 139.997 1091.24 138.958V122.394H1101.74V162H1091.24V147.322C1088.24 148.962 1084.38 149.782 1079.68 149.782C1074.32 149.782 1070.44 148.689 1068.04 146.502C1065.69 144.261 1064.51 141.008 1064.51 136.744V122.394ZM1130.64 162.984C1124.52 162.984 1119.46 161.071 1115.47 157.244C1111.48 153.417 1109.49 148.388 1109.49 142.156C1109.49 136.307 1111.4 131.387 1115.23 127.396C1119.11 123.405 1124.03 121.41 1129.99 121.41C1135.89 121.41 1140.67 123.433 1144.34 127.478C1148 131.469 1149.83 136.717 1149.83 143.222V145.518H1120.39C1120.72 148.142 1121.89 150.329 1123.92 152.078C1125.94 153.827 1128.56 154.702 1131.79 154.702C1133.54 154.702 1135.42 154.347 1137.45 153.636C1139.52 152.925 1141.16 151.969 1142.37 150.766L1146.96 157.49C1142.97 161.153 1137.53 162.984 1130.64 162.984ZM1139.74 138.466C1139.58 136.225 1138.68 134.202 1137.04 132.398C1135.45 130.594 1133.1 129.692 1129.99 129.692C1127.03 129.692 1124.74 130.594 1123.1 132.398C1121.46 134.147 1120.5 136.17 1120.23 138.466H1139.74ZM1175.15 162H1164.65V131.496H1153.58V122.394H1186.22V131.496H1175.15V162ZM1227.26 121.41C1231.47 121.41 1234.99 123.433 1237.83 127.478V107.306H1248.25V127.396C1250.98 123.405 1254.51 121.41 1258.83 121.41C1263.31 121.41 1266.94 123.269 1269.73 126.986C1272.58 130.649 1274 135.705 1274 142.156C1274 148.607 1272.58 153.691 1269.73 157.408C1266.94 161.125 1263.31 162.984 1258.83 162.984C1254.51 162.984 1250.98 160.961 1248.25 156.916V177.088H1237.83V156.916C1235.16 160.961 1231.63 162.984 1227.26 162.984C1222.77 162.984 1219.11 161.153 1216.27 157.49C1213.48 153.773 1212.09 148.689 1212.09 142.238C1212.09 135.787 1213.48 130.703 1216.27 126.986C1219.11 123.269 1222.77 121.41 1227.26 121.41ZM1230.62 130.676C1228.27 130.676 1226.33 131.742 1224.8 133.874C1223.32 136.006 1222.58 138.794 1222.58 142.238C1222.58 145.627 1223.32 148.388 1224.8 150.52C1226.33 152.652 1228.27 153.718 1230.62 153.718C1231.99 153.718 1233.32 153.281 1234.64 152.406C1236 151.531 1237.07 150.465 1237.83 149.208V135.186C1237.12 133.929 1236.06 132.863 1234.64 131.988C1233.27 131.113 1231.93 130.676 1230.62 130.676ZM1255.38 153.718C1257.79 153.718 1259.73 152.652 1261.2 150.52C1262.68 148.388 1263.42 145.6 1263.42 142.156C1263.42 138.767 1262.68 136.006 1261.2 133.874C1259.73 131.742 1257.79 130.676 1255.38 130.676C1254.07 130.676 1252.73 131.113 1251.36 131.988C1250 132.863 1248.96 133.929 1248.25 135.186V149.208C1248.96 150.465 1250 151.531 1251.36 152.406C1252.73 153.281 1254.07 153.718 1255.38 153.718ZM1292.68 162H1282.67V122.394H1293.09V146.338L1309.41 122.394H1319.9V162H1309.49V137.154L1292.68 162ZM1368.94 162H1355.91L1345.41 146.748L1340.65 151.832V162H1330.24V122.394H1340.65V140.024L1355.66 122.394H1368.45L1352.79 140.352L1368.94 162ZM1392.09 162.984C1385.97 162.984 1380.94 161.043 1377 157.162C1373.07 153.281 1371.1 148.279 1371.1 142.156C1371.1 136.088 1373.07 131.113 1377 127.232C1380.94 123.351 1385.97 121.41 1392.09 121.41C1399.09 121.41 1404.31 123.788 1407.75 128.544L1400.95 134.94C1399.04 132.097 1396.25 130.676 1392.58 130.676C1389.41 130.676 1386.82 131.742 1384.79 133.874C1382.83 135.951 1381.84 138.712 1381.84 142.156C1381.84 145.6 1382.83 148.388 1384.79 150.52C1386.82 152.652 1389.41 153.718 1392.58 153.718C1396.14 153.718 1398.93 152.297 1400.95 149.454L1407.75 155.768C1404.31 160.579 1399.09 162.984 1392.09 162.984ZM1424.57 162H1414.56V122.394H1424.98V146.338L1441.29 122.394H1451.79V162H1441.38V137.154L1424.57 162ZM1484.76 162.984C1479.79 162.984 1475.71 160.961 1472.54 156.916V177.088H1462.13V122.394H1472.54V127.396C1475.66 123.405 1479.73 121.41 1484.76 121.41C1489.95 121.41 1494.16 123.269 1497.39 126.986C1500.67 130.649 1502.31 135.705 1502.31 142.156C1502.31 148.607 1500.67 153.691 1497.39 157.408C1494.16 161.125 1489.95 162.984 1484.76 162.984ZM1481.48 153.718C1484.49 153.718 1486.89 152.652 1488.7 150.52C1490.56 148.388 1491.48 145.6 1491.48 142.156C1491.48 138.767 1490.56 136.006 1488.7 133.874C1486.89 131.742 1484.49 130.676 1481.48 130.676C1479.79 130.676 1478.09 131.113 1476.4 131.988C1474.7 132.863 1473.42 133.929 1472.54 135.186V149.208C1473.42 150.465 1474.7 151.531 1476.4 152.406C1478.15 153.281 1479.84 153.718 1481.48 153.718ZM1543.56 156.998C1539.73 160.989 1534.64 162.984 1528.3 162.984C1521.96 162.984 1516.88 160.989 1513.05 156.998C1509.28 152.953 1507.39 148.005 1507.39 142.156C1507.39 136.307 1509.28 131.387 1513.05 127.396C1516.88 123.405 1521.96 121.41 1528.3 121.41C1534.64 121.41 1539.73 123.405 1543.56 127.396C1547.38 131.387 1549.3 136.307 1549.3 142.156C1549.3 148.005 1547.38 152.953 1543.56 156.998ZM1520.92 150.438C1522.73 152.625 1525.19 153.718 1528.3 153.718C1531.42 153.718 1533.88 152.625 1535.68 150.438C1537.54 148.197 1538.47 145.436 1538.47 142.156C1538.47 138.931 1537.54 136.225 1535.68 134.038C1533.88 131.797 1531.42 130.676 1528.3 130.676C1525.19 130.676 1522.73 131.797 1520.92 134.038C1519.12 136.225 1518.22 138.931 1518.22 142.156C1518.22 145.436 1519.12 148.197 1520.92 150.438ZM1582.85 162H1557.02V122.394H1582.11C1585.94 122.394 1588.92 123.378 1591.05 125.346C1593.18 127.314 1594.25 129.719 1594.25 132.562C1594.25 134.858 1593.62 136.799 1592.36 138.384C1591.11 139.969 1589.49 141.035 1587.53 141.582C1589.71 142.074 1591.52 143.222 1592.94 145.026C1594.36 146.83 1595.07 148.907 1595.07 151.258C1595.07 154.374 1593.98 156.943 1591.79 158.966C1589.66 160.989 1586.68 162 1582.85 162ZM1580.31 153.472C1581.57 153.472 1582.55 153.144 1583.26 152.488C1584.03 151.832 1584.41 150.93 1584.41 149.782C1584.41 148.743 1584.03 147.869 1583.26 147.158C1582.55 146.447 1581.57 146.092 1580.31 146.092H1567.44V153.472H1580.31ZM1579.98 137.564C1581.07 137.564 1581.95 137.263 1582.61 136.662C1583.32 136.006 1583.67 135.213 1583.67 134.284C1583.67 133.3 1583.34 132.507 1582.69 131.906C1582.03 131.25 1581.13 130.922 1579.98 130.922H1567.44V137.564H1579.98ZM1639.26 162H1628.85V157.9C1626.01 161.289 1621.82 162.984 1616.3 162.984C1612.75 162.984 1609.55 161.836 1606.71 159.54C1603.92 157.189 1602.53 153.964 1602.53 149.864C1602.53 145.6 1603.89 142.402 1606.63 140.27C1609.41 138.138 1612.64 137.072 1616.3 137.072C1621.93 137.072 1626.12 138.685 1628.85 141.91V136.58C1628.85 134.557 1628.06 132.945 1626.47 131.742C1624.89 130.539 1622.78 129.938 1620.16 129.938C1615.84 129.938 1611.98 131.496 1608.59 134.612L1604.66 127.642C1609.36 123.487 1615.13 121.41 1621.96 121.41C1627.04 121.41 1631.2 122.585 1634.42 124.936C1637.65 127.287 1639.26 131.113 1639.26 136.416V162ZM1620.48 155.932C1624.37 155.932 1627.15 154.784 1628.85 152.488V147.568C1627.15 145.272 1624.37 144.124 1620.48 144.124C1618.35 144.124 1616.58 144.671 1615.15 145.764C1613.73 146.803 1613.02 148.251 1613.02 150.11C1613.02 151.914 1613.73 153.335 1615.15 154.374C1616.58 155.413 1618.35 155.932 1620.48 155.932ZM1660.01 162H1649.59V122.394H1660.01V137.072H1676.41V122.394H1686.82V162H1676.41V146.174H1660.01V162ZM1707.57 162H1697.16V122.394H1707.57V137.072H1723.97V122.394H1734.39V162H1723.97V146.174H1707.57V162ZM1778.34 156.998C1774.52 160.989 1769.43 162.984 1763.09 162.984C1756.75 162.984 1751.67 160.989 1747.84 156.998C1744.07 152.953 1742.18 148.005 1742.18 142.156C1742.18 136.307 1744.07 131.387 1747.84 127.396C1751.67 123.405 1756.75 121.41 1763.09 121.41C1769.43 121.41 1774.52 123.405 1778.34 127.396C1782.17 131.387 1784.08 136.307 1784.08 142.156C1784.08 148.005 1782.17 152.953 1778.34 156.998ZM1755.71 150.438C1757.52 152.625 1759.98 153.718 1763.09 153.718C1766.21 153.718 1768.67 152.625 1770.47 150.438C1772.33 148.197 1773.26 145.436 1773.26 142.156C1773.26 138.931 1772.33 136.225 1770.47 134.038C1768.67 131.797 1766.21 130.676 1763.09 130.676C1759.98 130.676 1757.52 131.797 1755.71 134.038C1753.91 136.225 1753.01 138.931 1753.01 142.156C1753.01 145.436 1753.91 148.197 1755.71 150.438ZM1801.81 162H1791.81V122.394H1802.22V146.338L1818.54 122.394H1829.04V162H1818.62V137.154L1801.81 162ZM1824.77 111.242C1821.22 116.053 1816.44 118.458 1810.42 118.458C1804.47 118.458 1799.66 116.053 1795.99 111.242L1800.58 107.388C1802.99 110.777 1806.27 112.472 1810.42 112.472C1814.47 112.472 1817.72 110.777 1820.18 107.388L1824.77 111.242ZM1878.81 162.984C1872.68 162.984 1867.66 161.043 1863.72 157.162C1859.78 153.281 1857.82 148.279 1857.82 142.156C1857.82 136.088 1859.78 131.113 1863.72 127.232C1867.66 123.351 1872.68 121.41 1878.81 121.41C1885.8 121.41 1891.03 123.788 1894.47 128.544L1887.66 134.94C1885.75 132.097 1882.96 130.676 1879.3 130.676C1876.13 130.676 1873.53 131.742 1871.51 133.874C1869.54 135.951 1868.56 138.712 1868.56 142.156C1868.56 145.6 1869.54 148.388 1871.51 150.52C1873.53 152.652 1876.13 153.718 1879.3 153.718C1882.85 153.718 1885.64 152.297 1887.66 149.454L1894.47 155.768C1891.03 160.579 1885.8 162.984 1878.81 162.984ZM1919.07 162H1908.58V131.496H1897.51V122.394H1930.14V131.496H1919.07V162ZM1970.29 156.998C1966.47 160.989 1961.38 162.984 1955.04 162.984C1948.7 162.984 1943.61 160.989 1939.79 156.998C1936.02 152.953 1934.13 148.005 1934.13 142.156C1934.13 136.307 1936.02 131.387 1939.79 127.396C1943.61 123.405 1948.7 121.41 1955.04 121.41C1961.38 121.41 1966.47 123.405 1970.29 127.396C1974.12 131.387 1976.03 136.307 1976.03 142.156C1976.03 148.005 1974.12 152.953 1970.29 156.998ZM1947.66 150.438C1949.46 152.625 1951.92 153.718 1955.04 153.718C1958.16 153.718 1960.62 152.625 1962.42 150.438C1964.28 148.197 1965.21 145.436 1965.21 142.156C1965.21 138.931 1964.28 136.225 1962.42 134.038C1960.62 131.797 1958.16 130.676 1955.04 130.676C1951.92 130.676 1949.46 131.797 1947.66 134.038C1945.86 136.225 1944.95 138.931 1944.95 142.156C1944.95 145.436 1945.86 148.197 1947.66 150.438ZM1993.76 162H1983.76V122.394H1994.17V146.338L2010.49 122.394H2020.99V162H2010.57V137.154L1993.76 162ZM2078.15 162H2067.73V136.252L2057.15 162H2052.4L2041.74 136.252V162H2031.32V122.394H2045.02L2054.78 146.01L2064.37 122.394H2078.15V162ZM2122.12 156.998C2118.29 160.989 2113.21 162.984 2106.87 162.984C2100.53 162.984 2095.44 160.989 2091.62 156.998C2087.84 152.953 2085.96 148.005 2085.96 142.156C2085.96 136.307 2087.84 131.387 2091.62 127.396C2095.44 123.405 2100.53 121.41 2106.87 121.41C2113.21 121.41 2118.29 123.405 2122.12 127.396C2125.95 131.387 2127.86 136.307 2127.86 142.156C2127.86 148.005 2125.95 152.953 2122.12 156.998ZM2099.49 150.438C2101.29 152.625 2103.75 153.718 2106.87 153.718C2109.98 153.718 2112.44 152.625 2114.25 150.438C2116.11 148.197 2117.04 145.436 2117.04 142.156C2117.04 138.931 2116.11 136.225 2114.25 134.038C2112.44 131.797 2109.98 130.676 2106.87 130.676C2103.75 130.676 2101.29 131.797 2099.49 134.038C2097.68 136.225 2096.78 138.931 2096.78 142.156C2096.78 145.436 2097.68 148.197 2099.49 150.438ZM2154.04 162.984C2147.91 162.984 2142.88 161.043 2138.95 157.162C2135.01 153.281 2133.04 148.279 2133.04 142.156C2133.04 136.088 2135.01 131.113 2138.95 127.232C2142.88 123.351 2147.91 121.41 2154.04 121.41C2161.03 121.41 2166.25 123.788 2169.7 128.544L2162.89 134.94C2160.98 132.097 2158.19 130.676 2154.53 130.676C2151.36 130.676 2148.76 131.742 2146.74 133.874C2144.77 135.951 2143.79 138.712 2143.79 142.156C2143.79 145.6 2144.77 148.388 2146.74 150.52C2148.76 152.652 2151.36 153.718 2154.53 153.718C2158.08 153.718 2160.87 152.297 2162.89 149.454L2169.7 155.768C2166.25 160.579 2161.03 162.984 2154.04 162.984ZM2194.3 162H2183.8V131.496H2172.73V122.394H2205.37V131.496H2194.3V162ZM2221.9 162H2211.9V122.394H2222.31V146.338L2238.63 122.394H2249.13V162H2238.71V137.154L2221.9 162ZM2318 162.984C2312.48 162.984 2307.89 161.426 2304.23 158.31C2300.56 155.139 2298.3 151.094 2297.42 146.174H2290.86V162H2280.45V122.394H2290.86V137.072H2297.67C2298.71 132.48 2301.03 128.735 2304.64 125.838C2308.25 122.886 2312.7 121.41 2318 121.41C2324.34 121.41 2329.43 123.405 2333.26 127.396C2337.08 131.387 2339 136.307 2339 142.156C2339 148.005 2337.08 152.953 2333.26 156.998C2329.43 160.989 2324.34 162.984 2318 162.984ZM2318 153.718C2321.17 153.718 2323.66 152.625 2325.47 150.438C2327.27 148.197 2328.17 145.436 2328.17 142.156C2328.17 138.931 2327.27 136.225 2325.47 134.038C2323.66 131.797 2321.17 130.676 2318 130.676C2314.89 130.676 2312.43 131.797 2310.62 134.038C2308.82 136.225 2307.92 138.931 2307.92 142.156C2307.92 145.436 2308.82 148.197 2310.62 150.438C2312.43 152.625 2314.89 153.718 2318 153.718ZM2369.38 162.984C2364.41 162.984 2360.34 160.961 2357.17 156.916V177.088H2346.75V122.394H2357.17V127.396C2360.28 123.405 2364.35 121.41 2369.38 121.41C2374.58 121.41 2378.79 123.269 2382.01 126.986C2385.29 130.649 2386.93 135.705 2386.93 142.156C2386.93 148.607 2385.29 153.691 2382.01 157.408C2378.79 161.125 2374.58 162.984 2369.38 162.984ZM2366.1 153.718C2369.11 153.718 2371.52 152.652 2373.32 150.52C2375.18 148.388 2376.11 145.6 2376.11 142.156C2376.11 138.767 2375.18 136.006 2373.32 133.874C2371.52 131.742 2369.11 130.676 2366.1 130.676C2364.41 130.676 2362.71 131.113 2361.02 131.988C2359.33 132.863 2358.04 133.929 2357.17 135.186V149.208C2358.04 150.465 2359.33 151.531 2361.02 152.406C2362.77 153.281 2364.46 153.718 2366.1 153.718ZM2404.56 162H2394.56V122.394H2404.97V146.338L2421.29 122.394H2431.79V162H2421.37V137.154L2404.56 162ZM2438.43 172.086V153.308C2439.64 153.089 2440.57 152.707 2441.22 152.16C2441.93 151.559 2442.59 150.438 2443.19 148.798C2443.85 147.103 2444.37 144.698 2444.75 141.582L2447.29 122.394H2479.35V152.898H2483.7V172.086H2473.28V162H2448.93V172.086H2438.43ZM2456.39 131.496L2455.16 142.238C2454.62 146.994 2453.09 150.547 2450.57 152.898H2468.94V131.496H2456.39ZM2500.26 162H2490.25V122.394H2500.67V146.338L2516.98 122.394H2527.48V162H2517.07V137.154L2500.26 162ZM2536.59 122.394H2547V133.136C2547 135.815 2547.69 137.728 2549.05 138.876C2550.42 139.969 2552.52 140.516 2555.37 140.516C2558.59 140.516 2561.24 139.997 2563.32 138.958V122.394H2573.82V162H2563.32V147.322C2560.31 148.962 2556.46 149.782 2551.76 149.782C2546.4 149.782 2542.52 148.689 2540.11 146.502C2537.76 144.261 2536.59 141.008 2536.59 136.744V122.394ZM2602.72 162.984C2596.59 162.984 2591.54 161.071 2587.55 157.244C2583.56 153.417 2581.56 148.388 2581.56 142.156C2581.56 136.307 2583.47 131.387 2587.3 127.396C2591.18 123.405 2596.1 121.41 2602.06 121.41C2607.97 121.41 2612.75 123.433 2616.41 127.478C2620.07 131.469 2621.91 136.717 2621.91 143.222V145.518H2592.47C2592.8 148.142 2593.97 150.329 2595.99 152.078C2598.02 153.827 2600.64 154.702 2603.87 154.702C2605.61 154.702 2607.5 154.347 2609.52 153.636C2611.6 152.925 2613.24 151.969 2614.44 150.766L2619.04 157.49C2615.04 161.153 2609.61 162.984 2602.72 162.984ZM2611.82 138.466C2611.66 136.225 2610.75 134.202 2609.11 132.398C2607.53 130.594 2605.18 129.692 2602.06 129.692C2599.11 129.692 2596.81 130.594 2595.17 132.398C2593.53 134.147 2592.58 136.17 2592.3 138.466H2611.82ZM2647.88 162.984C2641.76 162.984 2636.73 161.043 2632.79 157.162C2628.85 153.281 2626.89 148.279 2626.89 142.156C2626.89 136.088 2628.85 131.113 2632.79 127.232C2636.73 123.351 2641.76 121.41 2647.88 121.41C2654.88 121.41 2660.1 123.788 2663.54 128.544L2656.73 134.94C2654.82 132.097 2652.03 130.676 2648.37 130.676C2645.2 130.676 2642.6 131.742 2640.58 133.874C2638.61 135.951 2637.63 138.712 2637.63 142.156C2637.63 145.6 2638.61 148.388 2640.58 150.52C2642.6 152.652 2645.2 153.718 2648.37 153.718C2651.92 153.718 2654.71 152.297 2656.73 149.454L2663.54 155.768C2660.1 160.579 2654.88 162.984 2647.88 162.984ZM2709.05 162H2696.01L2685.52 146.748L2680.76 151.832V162H2670.35V122.394H2680.76V140.024L2695.77 122.394H2708.56L2692.9 140.352L2709.05 162ZM2747.37 156.998C2743.54 160.989 2738.46 162.984 2732.12 162.984C2725.78 162.984 2720.69 160.989 2716.87 156.998C2713.09 152.953 2711.21 148.005 2711.21 142.156C2711.21 136.307 2713.09 131.387 2716.87 127.396C2720.69 123.405 2725.78 121.41 2732.12 121.41C2738.46 121.41 2743.54 123.405 2747.37 127.396C2751.2 131.387 2753.11 136.307 2753.11 142.156C2753.11 148.005 2751.2 152.953 2747.37 156.998ZM2724.74 150.438C2726.54 152.625 2729 153.718 2732.12 153.718C2735.23 153.718 2737.69 152.625 2739.5 150.438C2741.36 148.197 2742.29 145.436 2742.29 142.156C2742.29 138.931 2741.36 136.225 2739.5 134.038C2737.69 131.797 2735.23 130.676 2732.12 130.676C2729 130.676 2726.54 131.797 2724.74 134.038C2722.93 136.225 2722.03 138.931 2722.03 142.156C2722.03 145.436 2722.93 148.197 2724.74 150.438ZM2770.84 162H2760.84V122.394H2771.25V146.338L2787.57 122.394H2798.06V162H2787.65V137.154L2770.84 162ZM2793.8 111.242C2790.25 116.053 2785.46 118.458 2779.45 118.458C2773.49 118.458 2768.68 116.053 2765.02 111.242L2769.61 107.388C2772.02 110.777 2775.3 112.472 2779.45 112.472C2783.5 112.472 2786.75 110.777 2789.21 107.388L2793.8 111.242ZM2827.99 177.498L2829.55 168.15C2830.53 168.587 2831.62 168.806 2832.83 168.806C2835.61 168.806 2837.45 167.849 2838.32 165.936L2839.8 162.574L2823.72 122.394H2834.88L2845.21 149.946L2855.54 122.394H2866.77L2848.16 168.478C2846.79 171.977 2844.88 174.409 2842.42 175.776C2839.96 177.197 2836.87 177.963 2833.15 178.072C2831.24 178.072 2829.52 177.881 2827.99 177.498ZM2889.87 162.984C2883.75 162.984 2878.72 161.043 2874.79 157.162C2870.85 153.281 2868.88 148.279 2868.88 142.156C2868.88 136.088 2870.85 131.113 2874.79 127.232C2878.72 123.351 2883.75 121.41 2889.87 121.41C2896.87 121.41 2902.09 123.788 2905.54 128.544L2898.73 134.94C2896.82 132.097 2894.03 130.676 2890.37 130.676C2887.2 130.676 2884.6 131.742 2882.58 133.874C2880.61 135.951 2879.62 138.712 2879.62 142.156C2879.62 145.6 2880.61 148.388 2882.58 150.52C2884.6 152.652 2887.2 153.718 2890.37 153.718C2893.92 153.718 2896.71 152.297 2898.73 149.454L2905.54 155.768C2902.09 160.579 2896.87 162.984 2889.87 162.984ZM2908.65 162.984V154.456C2910.29 154.456 2911.61 153.499 2912.59 151.586C2913.57 149.618 2914.37 146.283 2914.97 141.582L2917.51 122.394H2949.57V162H2939.16V131.496H2926.61L2925.3 142.812C2924.48 149.755 2922.73 154.866 2920.05 158.146C2917.43 161.371 2913.63 162.984 2908.65 162.984ZM2958.52 177.498L2960.07 168.15C2961.06 168.587 2962.15 168.806 2963.35 168.806C2966.14 168.806 2967.97 167.849 2968.85 165.936L2970.32 162.574L2954.25 122.394H2965.4L2975.74 149.946L2986.07 122.394H2997.3L2978.69 168.478C2977.32 171.977 2975.41 174.409 2972.95 175.776C2970.49 177.197 2967.4 177.963 2963.68 178.072C2961.77 178.072 2960.05 177.881 2958.52 177.498ZM3032.54 122.394V131.496H3012.37V162H3001.95V122.394H3032.54ZM3049.19 162H3039.19V122.394H3049.6V146.338L3065.92 122.394H3076.42V162H3066V137.154L3049.19 162Z" fill="white"/>
<defs>
<linearGradient id="paint0_linear" x1="46.1533" y1="147.707" x2="46.1533" y2="218" gradientUnits="userSpaceOnUse">
<stop stop-color="white"/>
<stop offset="1" stop-color="#131311"/>
</linearGradient>
<radialGradient id="paint1_radial" cx="0" cy="0" r="1" gradientUnits="userSpaceOnUse" gradientTransform="translate(55.619 62.7352) scale(94.6606 149.91)">
<stop stop-color="white"/>
<stop offset="1" stop-color="#434448"/>
</radialGradient>
<linearGradient id="paint2_linear" x1="126.765" y1="38" x2="126.765" y2="179.694" gradientUnits="userSpaceOnUse">
<stop stop-color="#A7A7AA"/>
<stop offset="0.43" stop-color="#ECEDED"/>
<stop offset="0.59" stop-color="#7F8083"/>
<stop offset="1" stop-color="#131311"/>
</linearGradient>
<linearGradient id="paint3_linear" x1="151.418" y1="66.3127" x2="151.418" y2="149.994" gradientUnits="userSpaceOnUse">
<stop stop-color="#004394"/>
<stop offset="0.66" stop-color="#009EE0"/>
<stop offset="1" stop-color="#009EE0"/>
</linearGradient>
<linearGradient id="paint4_linear" x1="151.418" y1="66.3127" x2="151.418" y2="103.197" gradientUnits="userSpaceOnUse">
<stop stop-color="#004394"/>
<stop offset="0.66" stop-color="#009EE0"/>
<stop offset="1" stop-color="#009EE0"/>
</linearGradient>
<radialGradient id="paint5_radial" cx="0" cy="0" r="1" gradientUnits="userSpaceOnUse" gradientTransform="translate(177.545 163.594) scale(81.9489 33.8942)">
<stop stop-color="white"/>
<stop offset="1" stop-color="#DCDCDC"/>
</radialGradient>
<radialGradient id="paint6_radial" cx="0" cy="0" r="1" gradientUnits="userSpaceOnUse" gradientTransform="translate(126.806 38.5472) scale(8.22542 109.448)">
<stop stop-color="white"/>
<stop offset="1" stop-color="#DEDEDE"/>
</radialGradient>
<radialGradient id="paint7_radial" cx="0" cy="0" r="1" gradientUnits="userSpaceOnUse" gradientTransform="translate(86.8495 165.17) scale(88.4699 42.111)">
<stop stop-color="white"/>
<stop offset="1" stop-color="#E0E0E0"/>
</radialGradient>
</defs>
</svg>
