<svg width="880" height="256" viewBox="0 0 880 256" fill="none" xmlns="http://www.w3.org/2000/svg">
<rect width="256" height="256" rx="13" fill="#1384FE"/>
<path d="M216.47 179.693L128.39 218L46.1533 187.91L134.659 147.707L216.47 179.693Z" fill="url(#paint0_linear)"/>
<path d="M134.661 147.707L46.1553 187.91L40 80.219L126.765 38L134.661 147.707Z" fill="url(#paint1_radial)"/>
<path d="M207.378 72.4595L216.472 179.694L134.661 147.707L126.765 38L207.378 72.4595Z" fill="url(#paint2_linear)"/>
<path d="M151.418 66.3127L189.807 82.4365L195.183 149.994L156.021 133.104L151.418 66.3127Z" fill="url(#paint3_linear)"/>
<path d="M189.807 82.4365L153.956 103.197L151.418 66.3127L189.807 82.4365Z" fill="url(#paint4_linear)"/>
<path d="M216.47 179.693V179.559L134.521 145.799L134.659 147.699L216.47 179.693Z" fill="url(#paint5_radial)"/>
<path d="M133.342 147.448L134.991 146.489L126.765 38L133.342 147.448Z" fill="url(#paint6_radial)"/>
<path d="M134.521 145.799L134.623 147.699L46.3916 187.798L46.1533 187.91L134.521 145.799Z" fill="url(#paint7_radial)"/>
<path d="M331.004 188H344.434V77.558H331.004V188ZM400.578 175.676C386.832 175.676 376.088 166.986 373.56 153.872H435.022V146.13C435.022 125.432 420.802 107.736 398.84 107.736C376.088 107.736 359.656 125.906 359.656 148.342C359.656 171.094 377.826 189.264 400.578 189.264C410.058 189.264 421.434 186.104 430.124 179.784L424.752 168.882C417.326 173.78 408.162 175.676 400.578 175.676ZM398.366 121.166C411.48 121.166 420.96 132.542 420.96 142.338H373.876C373.876 142.022 374.034 141.706 374.034 141.39C376.878 129.698 385.568 121.166 398.366 121.166ZM473.53 163.036L474.636 161.298L475.426 162.562L491.7 188H507.658L483.484 149.922L482.694 148.658L483.484 147.394L507.816 109H491.858L475.584 134.754L474.636 136.176L473.688 134.754L457.572 108.842H441.298L466.104 147.71L466.736 148.658L465.946 149.764L441.772 188H457.73L473.53 163.036ZM519.944 220.39H533.374V178.678C540.484 185.156 549.964 189.106 560.55 189.106C583.302 189.106 601.472 170.936 601.472 148.5C601.472 125.748 583.302 107.578 560.55 107.578C549.964 107.578 540.484 111.528 533.374 118.006V108.842H519.944V220.39ZM587.884 148.5C587.884 163.668 575.876 175.676 560.55 175.676C545.382 175.676 533.374 163.668 533.374 148.5C533.374 133.174 545.382 121.166 560.55 121.166C575.876 121.166 587.884 133.174 587.884 148.5ZM619.132 188H632.562V141.232C632.562 126.538 642.674 121.798 657.526 121.324H660.844V107.736H656.104C641.726 108.21 637.618 110.738 632.562 114.53V109H619.132V188ZM680.356 188H693.786V109H680.356V188ZM687.15 98.414C690.784 98.414 693.786 95.254 693.786 91.62C693.786 88.302 690.468 85.142 687.15 85.142C683.516 85.142 680.356 87.986 680.356 91.62C680.356 95.412 683.358 98.414 687.15 98.414ZM747.931 175.676C732.605 175.676 720.597 163.668 720.597 148.342C720.597 133.174 732.605 121.166 747.931 121.166C757.253 121.166 765.469 125.432 770.051 132.384L780.637 124.326C772.579 114.846 761.203 107.736 747.931 107.736C725.179 107.736 707.009 125.906 707.009 148.342C707.009 171.094 725.179 189.264 747.931 189.264C764.047 189.264 777.951 180.574 784.113 166.828L771.315 162.404C767.523 170.62 758.043 175.676 747.931 175.676ZM839.713 175.676C825.967 175.676 815.223 166.986 812.695 153.872H874.157V146.13C874.157 125.432 859.937 107.736 837.975 107.736C815.223 107.736 798.791 125.906 798.791 148.342C798.791 171.094 816.961 189.264 839.713 189.264C849.193 189.264 860.569 186.104 869.259 179.784L863.887 168.882C856.461 173.78 847.297 175.676 839.713 175.676ZM837.501 121.166C850.615 121.166 860.095 132.542 860.095 142.338H813.011C813.011 142.022 813.169 141.706 813.169 141.39C816.013 129.698 824.703 121.166 837.501 121.166Z" fill="white"/>
<defs>
<linearGradient id="paint0_linear" x1="46.1533" y1="147.707" x2="46.1533" y2="218" gradientUnits="userSpaceOnUse">
<stop stop-color="white"/>
<stop offset="1" stop-color="#131311"/>
</linearGradient>
<radialGradient id="paint1_radial" cx="0" cy="0" r="1" gradientUnits="userSpaceOnUse" gradientTransform="translate(55.619 62.7352) scale(94.6606 149.91)">
<stop stop-color="white"/>
<stop offset="1" stop-color="#434448"/>
</radialGradient>
<linearGradient id="paint2_linear" x1="126.765" y1="38" x2="126.765" y2="179.694" gradientUnits="userSpaceOnUse">
<stop stop-color="#A7A7AA"/>
<stop offset="0.43" stop-color="#ECEDED"/>
<stop offset="0.59" stop-color="#7F8083"/>
<stop offset="1" stop-color="#131311"/>
</linearGradient>
<linearGradient id="paint3_linear" x1="151.418" y1="66.3127" x2="151.418" y2="149.994" gradientUnits="userSpaceOnUse">
<stop stop-color="#004394"/>
<stop offset="0.66" stop-color="#009EE0"/>
<stop offset="1" stop-color="#009EE0"/>
</linearGradient>
<linearGradient id="paint4_linear" x1="151.418" y1="66.3127" x2="151.418" y2="103.197" gradientUnits="userSpaceOnUse">
<stop stop-color="#004394"/>
<stop offset="0.66" stop-color="#009EE0"/>
<stop offset="1" stop-color="#009EE0"/>
</linearGradient>
<radialGradient id="paint5_radial" cx="0" cy="0" r="1" gradientUnits="userSpaceOnUse" gradientTransform="translate(177.545 163.594) scale(81.9489 33.8942)">
<stop stop-color="white"/>
<stop offset="1" stop-color="#DCDCDC"/>
</radialGradient>
<radialGradient id="paint6_radial" cx="0" cy="0" r="1" gradientUnits="userSpaceOnUse" gradientTransform="translate(126.806 38.5472) scale(8.22542 109.448)">
<stop stop-color="white"/>
<stop offset="1" stop-color="#DEDEDE"/>
</radialGradient>
<radialGradient id="paint7_radial" cx="0" cy="0" r="1" gradientUnits="userSpaceOnUse" gradientTransform="translate(86.8495 165.17) scale(88.4699 42.111)">
<stop stop-color="white"/>
<stop offset="1" stop-color="#E0E0E0"/>
</radialGradient>
</defs>
</svg>
