<?xml version="1.0" encoding="UTF-8"?>
<svg xmlns="http://www.w3.org/2000/svg" xmlns:xlink="http://www.w3.org/1999/xlink" width="30pt" height="30pt" viewBox="0 0 30 30" version="1.1">
<g id="surface1896291">
<path style=" stroke:none;fill-rule:nonzero;fill:rgb(1.568627%,37.254902%,84.705882%);fill-opacity:1;" d="M 6 4 C 4.894531 4 4 4.894531 4 6 L 4 24 C 4 25.105469 4.894531 26 6 26 L 7.558594 26 C 7.210938 25.410156 7 24.730469 7 24 L 7 6 C 7 5.269531 7.210938 4.589844 7.558594 4 Z M 11 4 C 9.894531 4 9 4.894531 9 6 L 9 24 C 9 25.105469 9.894531 26 11 26 L 24 26 C 25.105469 26 26 25.105469 26 24 L 26 10.5 C 26 10.234375 25.894531 9.980469 25.707031 9.792969 L 20.207031 4.292969 C 20.019531 4.105469 19.765625 4 19.5 4 Z M 19 5.902344 L 24.09375 11 L 20 11 C 19.449219 11 19 10.550781 19 10 Z M 14 15 L 21 15 C 21.550781 15 22 15.449219 22 16 C 22 16.550781 21.550781 17 21 17 L 14 17 C 13.449219 17 13 16.550781 13 16 C 13 15.449219 13.449219 15 14 15 Z M 14 19 L 19 19 C 19.550781 19 20 19.449219 20 20 C 20 20.550781 19.550781 21 19 21 L 14 21 C 13.449219 21 13 20.550781 13 20 C 13 19.449219 13.449219 19 14 19 Z M 14 19 "/>
</g>
</svg>
